<?xml version="1.0" encoding="UTF-8"?>
<svg version="1.1" xmlns="http://www.w3.org/2000/svg" width="50" height="50">
    <path d="M0 0 C6.12274216 3.14913382 10.05196347 7.5230779 12.25390625 14.12890625 C12.91605774 21.57338086 13.41565059 28.3432204 8.75 34.515625 C5.46236478 38.06077734 1.88476113 41.48569968 -2.74609375 43.12890625 C-4.39609375 43.12890625 -6.04609375 43.12890625 -7.74609375 43.12890625 C-7.74609375 37.51890625 -7.74609375 31.90890625 -7.74609375 26.12890625 C-5.76609375 26.12890625 -3.78609375 26.12890625 -1.74609375 26.12890625 C-1.41609375 24.80890625 -1.08609375 23.48890625 -0.74609375 22.12890625 C-2.72609375 22.12890625 -4.70609375 22.12890625 -6.74609375 22.12890625 C-7.55576813 19.21407847 -7.96455368 17.66777408 -6.80859375 14.81640625 C-6.28265625 13.98109375 -6.28265625 13.98109375 -5.74609375 13.12890625 C-4.09609375 13.12890625 -2.44609375 13.12890625 -0.74609375 13.12890625 C-0.74609375 11.80890625 -0.74609375 10.48890625 -0.74609375 9.12890625 C-6.38811498 9.17371742 -6.38811498 9.17371742 -10.68359375 12.25390625 C-11.90121159 15.54863689 -12.40400996 18.63965157 -12.74609375 22.12890625 C-14.39609375 22.12890625 -16.04609375 22.12890625 -17.74609375 22.12890625 C-17.74609375 23.44890625 -17.74609375 24.76890625 -17.74609375 26.12890625 C-16.09609375 26.12890625 -14.44609375 26.12890625 -12.74609375 26.12890625 C-12.74609375 31.73890625 -12.74609375 37.34890625 -12.74609375 43.12890625 C-20.70571849 41.80230213 -24.49392529 38.76728851 -29.546875 32.8125 C-33.25856874 27.60162052 -32.31887273 20.17929574 -31.74609375 14.12890625 C-29.6119012 7.400936 -25.70308297 3.65897394 -19.74609375 0.12890625 C-13.60519787 -1.91805904 -6.17254823 -1.95800605 0 0 Z "
          fill="#FFFFFF" transform="translate(34.74609375,3.87109375)"/>
</svg>
